# xmcd CD database file generated by OrangeCD 5.2
#
# Track frame offsets:
#	150
#	18015
#	34592
#	50217
#	63907
#	87170
#	97532
#	122562
#	143120
#	155215
#	170795
#	191482
#	211775
#	222495
#	239720
#	252920
#	266712
#	286102
#	301102
#	322015
#
# Disc length: 4493 seconds
#
# Revision: 3
# Processed by: cddbd v1.5.1PL2 Copyright (c) Steve Scherf et al.
# Submitted via: OrangeCD 5.2
#
DISCID=1e118b14
DTITLE=Deborah Harry - The Complete Picture -The Very Best Of Deborah Harry And
DTITLE=Blondie
DYEAR=1991
DGENRE=Rock
TTITLE0=Heart Of Glass
TTITLE1=I Want That Man
TTITLE2=Call Me
TTITLE3=Sunday Girl
TTITLE4=French Kissin' In The USA
TTITLE5=Denis
TTITLE6=Rapture
TTITLE7=Brite Side
TTITLE8=(I'm Always Touched By Your) Presence Dear
TTITLE9=Well, Did You Evah?
TTITLE10=The Tide Is High
TTITLE11=In Love With Love
TTITLE12=Hanging On The Telephone
TTITLE13=Island Of Lost Souls
TTITLE14=Picture This
TTITLE15=Dreaming
TTITLE16=Sweet And Low
TTITLE17=Union City Blue
TTITLE18=Atomic
TTITLE19=Rip Her To Shreads
EXTD=YEAR: 1991
EXTT0=
EXTT1=
EXTT2=
EXTT3=
EXTT4=
EXTT5=
EXTT6=
EXTT7=
EXTT8=
EXTT9=
EXTT10=
EXTT11=
EXTT12=
EXTT13=
EXTT14=
EXTT15=
EXTT16=
EXTT17=
EXTT18=
EXTT19=
PLAYORDER=
